<?xml version="1.0"?>
<svg xmlns="http://www.w3.org/2000/svg" id="Layer_1" height="512px" viewBox="0 0 512 512" width="512px" data-name="Layer 1"><g><path d="m416.308 250h12.001v12.001h-12.001z" transform="matrix(.707 -.707 .707 .707 -57.325 373.611)" data-original="#000000" class="active-path" data-old_color="#000000" fill="#006838"/><path d="m351.452 100.317a70.954 70.954 0 1 0 .278-12h-36.624a6 6 0 0 0 -6 6v155.666h-50.353l20.816-20.816a6 6 0 0 0 -8.486-8.484l-30 30a6 6 0 0 0 0 8.484l30 30a6 6 0 0 0 8.486-8.484l-18.7-18.7h48.236v155.667a6 6 0 0 0 6 6h36.621a71.04 71.04 0 1 0 -.273-12h-30.347v-149.667h30.473a71 71 0 1 0 0-12h-30.473v-149.666zm42.414-12.386a6 6 0 0 1 8.478.343l12.793 13.873 27.493-25.183a6 6 0 0 1 8.106 8.849l-31.9 29.223a6 6 0 0 1 -8.463-.357l-16.848-18.27a6 6 0 0 1 .341-8.478zm0 320a6 6 0 0 1 8.478.343l12.793 13.873 27.493-25.183a6 6 0 0 1 8.106 8.849l-31.9 29.223a6 6 0 0 1 -8.463-.357l-16.848-18.27a6 6 0 0 1 .341-8.478zm9.475-162.412a6 6 0 0 1 8.485-8.487l10.482 10.482 10.483-10.482a6 6 0 0 1 8.485 8.487l-10.482 10.481 10.482 10.481a6 6 0 0 1 -8.485 8.487l-10.483-10.482-10.482 10.482a6 6 0 0 1 -8.485-8.487l10.481-10.481z" data-original="#000000" class="active-path" data-old_color="#000000" fill="#006838"/><path d="m207.72 277.514a87.975 87.975 0 0 0 -2.14-85.138 86.335 86.335 0 0 0 -71.818-43.236q-1.209-.045-2.429-.058a94.11 94.11 0 0 0 -95.28 89.13c-.093 1.526-.133 12.74-.146 17.6l-16.562 43.388a9.928 9.928 0 0 0 9.275 13.468h20.047v23a25.417 25.417 0 0 0 7.787 18.4 25.806 25.806 0 0 0 18.611 7.227c1.361-.042 17.8-.119 30.891-.171l8.672 34.482a6 6 0 0 0 5.819 4.537h82.306a6 6 0 0 0 5.8-7.546c-.136-.514-13.67-51.778-10.687-83.815.674-7.267 7.239-24.775 9.854-31.268zm-76.862 13.411a56 56 0 1 1 56-56 56.063 56.063 0 0 1 -56 56z" data-original="#000000" class="active-path" data-old_color="#000000" fill="#006838"/><path d="m130.858 190.925a44 44 0 1 0 44 44 44.049 44.049 0 0 0 -44-44zm28.428 33.814-31.9 29.222a6 6 0 0 1 -8.464-.357l-16.846-18.27a6 6 0 1 1 8.822-8.135l12.793 13.873 27.489-25.182a6 6 0 0 1 8.106 8.849z" data-original="#000000" class="active-path" data-old_color="#000000" fill="#006838"/></g> </svg>
